<svg id="Layer_1" data-name="Layer 1" xmlns="http://www.w3.org/2000/svg" viewBox="0 0 53.92 17.62"><defs><style>.cls-1{opacity:0.5;}.cls-2{fill:none;stroke:#fff;stroke-miterlimit:10;}.cls-3{fill:#fff;}</style></defs><g class="cls-1"><rect x="36.8" y="0.5" width="16.62" height="16.62" rx="5.84"/><rect class="cls-2" x="36.8" y="0.5" width="16.62" height="16.62" rx="5.84"/></g><g class="cls-1"><rect x="0.5" y="0.5" width="24.9" height="16.62" rx="5.84"/><rect class="cls-2" x="0.5" y="0.5" width="24.9" height="16.62" rx="5.84"/></g><path class="cls-3" d="M8.55,4A2.84,2.84,0,0,1,10,4.28a2.23,2.23,0,0,1,.6,1.2L12.7,13.2c0,.13,0,.2-.15.2H11a.13.13,0,0,1-.1,0,.33.33,0,0,1-.05-.16l-.69-2.49H7l-.7,2.49a.49.49,0,0,1,0,.16.17.17,0,0,1-.12,0H4.57c-.13,0-.18-.07-.16-.2L6.56,5.48a2.23,2.23,0,0,1,.6-1.2A2.72,2.72,0,0,1,8.55,4Zm0,1.58a.24.24,0,0,0-.19.06A1,1,0,0,0,8.25,6L7.38,9.15H9.75L8.89,6c-.06-.19-.11-.3-.17-.33Z"/><path class="cls-3" d="M13.74,4.11h1.41a.16.16,0,0,1,.18.18V13.2c0,.13-.06.2-.18.2H13.74c-.12,0-.18-.07-.18-.2V4.29A.16.16,0,0,1,13.74,4.11Z"/><path class="cls-3" d="M17.36,5.19l1.42-.37c.12,0,.19,0,.19.18V6.71h1.1q.21,0,.21.18v1q0,.18-.21.18H19v3.28a.6.6,0,0,0,.15.48.85.85,0,0,0,.56.13h.49c.13,0,.2.06.2.18v1a.21.21,0,0,1-.19.23,5.38,5.38,0,0,1-1,.11A4.65,4.65,0,0,1,18,13.35a1,1,0,0,1-.61-.44,2.29,2.29,0,0,1-.23-1V8h-.71a.17.17,0,0,1-.19-.18v-1a.17.17,0,0,1,.19-.18h.71V5.38A.19.19,0,0,1,17.36,5.19Z"/><path class="cls-3" d="M30.56,6.78h1.31a.16.16,0,0,1,.18.18V8.9h2a.16.16,0,0,1,.18.18V10.3a.16.16,0,0,1-.18.18h-2v1.94a.16.16,0,0,1-.18.18H30.56a.16.16,0,0,1-.18-.18V10.48h-2a.16.16,0,0,1-.18-.18V9.08a.16.16,0,0,1,.18-.18h2V7A.16.16,0,0,1,30.56,6.78Z"/><path class="cls-3" d="M41.51,11.88h1.8a.11.11,0,0,1,.12.12v.28a.35.35,0,0,1-.06.17l-2.15,3a.14.14,0,0,1-.18,0l-.52-.29c-.06,0-.07-.09,0-.17L41.37,12A.14.14,0,0,1,41.51,11.88Z"/></svg>