<svg id="Layer_1" data-name="Layer 1" xmlns="http://www.w3.org/2000/svg" viewBox="0 0 39.46 17.62"><defs><style>.cls-1{opacity:0.5;}.cls-2{fill:none;stroke:#fff;stroke-miterlimit:10;}.cls-3{fill:#fff;}</style></defs><g class="cls-1"><rect x="0.5" y="0.5" width="38.46" height="16.62" rx="5.84"/><rect class="cls-2" x="0.5" y="0.5" width="38.46" height="16.62" rx="5.84"/></g><path class="cls-3" d="M5.34,4.11h6a.16.16,0,0,1,.18.18V5.57a.16.16,0,0,1-.18.18H7V8H11a.17.17,0,0,1,.19.18V9.42A.17.17,0,0,1,11,9.6H7v2.15h4.31a.16.16,0,0,1,.18.18v1.29a.16.16,0,0,1-.18.18h-6c-.12,0-.18-.07-.18-.2V4.29A.16.16,0,0,1,5.34,4.11Z"/><path class="cls-3" d="M15.84,6.62a7.69,7.69,0,0,1,1.45.1,1.89,1.89,0,0,1,.85.42,1.58,1.58,0,0,1,.47.85,6.58,6.58,0,0,1,.13,1.51v3.7c0,.13-.06.2-.19.2H17.13c-.12,0-.18-.07-.18-.2V10a8.71,8.71,0,0,0,0-1,.88.88,0,0,0-.2-.48.6.6,0,0,0-.34-.23,5,5,0,0,0-.7,0H14.58v5c0,.13-.06.2-.18.2H13c-.12,0-.18-.07-.18-.2V7a.31.31,0,0,1,0-.11l.06,0,.1,0A14.55,14.55,0,0,1,15.84,6.62Z"/><path class="cls-3" d="M20.62,5.19,22,4.82c.13,0,.19,0,.19.18V6.71h1.11c.13,0,.2.06.2.18v1c0,.12-.07.18-.2.18H22.23v3.28a.6.6,0,0,0,.15.48.87.87,0,0,0,.56.13h.49q.21,0,.21.18v1a.22.22,0,0,1-.2.23,5.38,5.38,0,0,1-1,.11,4.56,4.56,0,0,1-1.12-.11,1,1,0,0,1-.62-.44,2.31,2.31,0,0,1-.22-1V8h-.71c-.13,0-.19-.06-.19-.18v-1c0-.12.06-.18.19-.18h.71V5.38A.18.18,0,0,1,20.62,5.19Z"/><path class="cls-3" d="M27.4,6.62a3.09,3.09,0,0,1,2.36.67,4.39,4.39,0,0,1,.6,2.66v.37a.33.33,0,0,1-.09.26.5.5,0,0,1-.3.07H26.2a1.52,1.52,0,0,0,.28,1,1.71,1.71,0,0,0,1.08.24h2.12a.16.16,0,0,1,.18.18v1a.17.17,0,0,1-.16.19,12.48,12.48,0,0,1-2.3.17A3.15,3.15,0,0,1,25,12.77a4.38,4.38,0,0,1-.6-2.73A4.35,4.35,0,0,1,25,7.3,3.15,3.15,0,0,1,27.4,6.62Zm0,1.53a1.24,1.24,0,0,0-.94.28,1.62,1.62,0,0,0-.27,1.05h2.38a1.69,1.69,0,0,0-.26-1.05A1.17,1.17,0,0,0,27.4,8.15Z"/><path class="cls-3" d="M33.63,6.62a7.61,7.61,0,0,1,1.6.13.22.22,0,0,1,.19.24V8c0,.12-.07.18-.2.18H34.09a1.25,1.25,0,0,0-.67.12.56.56,0,0,0-.17.49V13.2c0,.13-.06.2-.18.2H31.64c-.12,0-.18-.07-.18-.2V8.31a1.67,1.67,0,0,1,.44-1.25A2.68,2.68,0,0,1,33.63,6.62Z"/></svg>