<svg id="Layer_1" data-name="Layer 1" xmlns="http://www.w3.org/2000/svg" viewBox="0 0 27.9 17.62"><defs><style>.cls-1{opacity:0.5;}.cls-2{fill:none;stroke:#fff;stroke-miterlimit:10;}.cls-3{fill:#fff;}</style></defs><g class="cls-1"><rect x="0.5" y="0.5" width="26.9" height="16.62" rx="5.84"/><rect class="cls-2" x="0.5" y="0.5" width="26.9" height="16.62" rx="5.84"/></g><path class="cls-3" d="M5.34,4.11h5.78a.16.16,0,0,1,.18.18V5.57a.16.16,0,0,1-.18.18H7V8h3.71c.13,0,.19.06.19.18V9.44c0,.12-.06.18-.19.18H7V13.2c0,.13-.06.2-.18.2H5.34c-.12,0-.18-.07-.18-.2V4.29A.16.16,0,0,1,5.34,4.11Z"/><path class="cls-3" d="M15.62,5.73v6h1.46a.16.16,0,0,1,.18.18v1.29a.16.16,0,0,1-.18.18h-4.8a.16.16,0,0,1-.18-.18V11.93a.17.17,0,0,1,.19-.18h1.53V6.22a.59.59,0,0,0-.17-.5A1.27,1.27,0,0,0,13,5.6h-.78q-.21,0-.21-.18v-1a.21.21,0,0,1,.2-.23A5.28,5.28,0,0,1,13.41,4a4,4,0,0,1,1.25.16A1.41,1.41,0,0,1,15.62,5.73Z"/><path class="cls-3" d="M21.46,5.73v6h1.47a.16.16,0,0,1,.18.18v1.29a.16.16,0,0,1-.18.18h-4.8a.16.16,0,0,1-.18-.18V11.93c0-.12.06-.18.19-.18h1.52V6.22c0-.26,0-.42-.17-.5a1.25,1.25,0,0,0-.67-.12H18c-.13,0-.2,0-.2-.18v-1A.21.21,0,0,1,18,4.18,5.36,5.36,0,0,1,19.26,4a3.93,3.93,0,0,1,1.24.16A1.41,1.41,0,0,1,21.46,5.73Z"/></svg>