<svg id="Layer_1" data-name="Layer 1" xmlns="http://www.w3.org/2000/svg" viewBox="0 0 28.81 17.62"><defs><style>.cls-1{opacity:0.5;}.cls-2{fill:none;stroke:#fff;stroke-miterlimit:10;}.cls-3{fill:#fff;}</style></defs><g class="cls-1"><rect x="0.5" y="0.5" width="27.81" height="16.62" rx="5.84"/><rect class="cls-2" x="0.5" y="0.5" width="27.81" height="16.62" rx="5.84"/></g><path class="cls-3" d="M5.34,4.11h5.78a.16.16,0,0,1,.18.18V5.57a.16.16,0,0,1-.18.18H7V8h3.71c.13,0,.19.06.19.18V9.44c0,.12-.06.18-.19.18H7V13.2c0,.13-.06.2-.18.2H5.34c-.12,0-.18-.07-.18-.2V4.29A.16.16,0,0,1,5.34,4.11Z"/><path class="cls-3" d="M15.62,5.73v6h1.46a.16.16,0,0,1,.18.18v1.29a.16.16,0,0,1-.18.18h-4.8a.16.16,0,0,1-.18-.18V11.93a.17.17,0,0,1,.19-.18h1.53V6.22a.59.59,0,0,0-.17-.5A1.27,1.27,0,0,0,13,5.6h-.78q-.21,0-.21-.18v-1a.21.21,0,0,1,.2-.23A5.28,5.28,0,0,1,13.41,4a4,4,0,0,1,1.25.16A1.41,1.41,0,0,1,15.62,5.73Z"/><path class="cls-3" d="M20.88,4a6.78,6.78,0,0,1,1.93.22,1.86,1.86,0,0,1,1.43,2V7.31A3.15,3.15,0,0,1,24,8.54a2.58,2.58,0,0,1-1,1l-2.14,1.33a1.31,1.31,0,0,0-.38.3.62.62,0,0,0-.1.37v.22h3.88c.07,0,.1,0,.1.07v1.51a.07.07,0,0,1-.08.08H18.13a.3.3,0,0,1-.33-.34V12a1.93,1.93,0,0,1,.32-1.15,5.06,5.06,0,0,1,1.21-1l2.55-1.68a.94.94,0,0,0,.38-.42A2,2,0,0,0,22.35,7v-.4A.75.75,0,0,0,22,5.88a3,3,0,0,0-1.3-.2H18.34c-.09,0-.14,0-.14-.13v-1a.25.25,0,0,1,.23-.27A13.63,13.63,0,0,1,20.88,4Z"/></svg>