<svg id="Layer_1" data-name="Layer 1" xmlns="http://www.w3.org/2000/svg" viewBox="0 0 24.02 17.62"><defs><style>.cls-1{opacity:0.5;}.cls-2{fill:none;stroke:#fff;stroke-miterlimit:10;}.cls-3{fill:#fff;}</style></defs><g class="cls-1"><rect x="0.5" y="0.5" width="23.02" height="16.62" rx="5.84"/><rect class="cls-2" x="0.5" y="0.5" width="23.02" height="16.62" rx="5.84"/></g><path class="cls-3" d="M5.34,4.11h5.78a.16.16,0,0,1,.18.18V5.57a.16.16,0,0,1-.18.18H7V8h3.71c.13,0,.19.06.19.18V9.44c0,.12-.06.18-.19.18H7V13.2c0,.13-.06.2-.18.2H5.34c-.12,0-.18-.07-.18-.2V4.29A.16.16,0,0,1,5.34,4.11Z"/><path class="cls-3" d="M13.72,4.11h1.52c.12,0,.17.07.13.21L13.92,9.48H16.1V7.41a.23.23,0,0,1,.17-.23l1.52-.52c.13,0,.19,0,.19.16V9.48h1.36c.13,0,.19.06.19.18V11c0,.12-.06.18-.19.18H18V13.2c0,.13-.06.2-.18.2H16.28c-.12,0-.18-.07-.18-.2V11.13h-4a.16.16,0,0,1-.18-.18v-.89A1.32,1.32,0,0,1,12,9.63l1.55-5.4Q13.52,4.11,13.72,4.11Z"/></svg>