<svg id="Layer_1" data-name="Layer 1" xmlns="http://www.w3.org/2000/svg" viewBox="0 0 102.03 48"><defs><style>.cls-1{opacity:0.33;}.cls-2{fill:#339fd1;}.cls-3,.cls-4{fill:#fff;}.cls-4,.cls-5{opacity:0.5;}.cls-4{isolation:isolate;}.cls-6{fill:none;stroke:#fff;stroke-miterlimit:10;}</style></defs><path class="cls-1" d="M94.13,13.26H45.44a24,24,0,1,0-.08,21.62H94.13A7.87,7.87,0,0,0,102,27V21.13A7.87,7.87,0,0,0,94.13,13.26Z" transform="translate(0.03)"/><circle class="cls-2" cx="24" cy="24" r="16.26"/><polygon class="cls-3" points="24 37.15 34.52 19.01 22.68 34.68 24 37.15"/><polygon class="cls-4" points="39.19 10.97 19.97 29.64 21.71 32.87 39.19 10.97"/><polygon class="cls-3" points="21.33 21.41 19.2 17.76 27.72 15.77 12.53 15.77 19.03 27.89 41.28 7.37 21.33 21.41"/><g class="cls-5"><rect x="82.91" y="15.76" width="16.62" height="16.62" rx="5.84"/><rect class="cls-6" x="82.91" y="15.76" width="16.62" height="16.62" rx="5.84"/></g><g class="cls-5"><rect x="46.61" y="15.76" width="24.9" height="16.62" rx="5.84"/><rect class="cls-6" x="46.61" y="15.76" width="24.9" height="16.62" rx="5.84"/></g><path class="cls-3" d="M54.63,19.3a2.84,2.84,0,0,1,1.44.24,2.23,2.23,0,0,1,.6,1.2l2.12,7.73c0,.12,0,.19-.16.19H57.09a.12.12,0,0,1-.1,0,.28.28,0,0,1-.05-.15L56.25,26H53l-.7,2.5a.28.28,0,0,1-.05.15s-.06,0-.12,0H50.65c-.13,0-.18-.07-.16-.19l2.15-7.73a2.39,2.39,0,0,1,.6-1.2A2.72,2.72,0,0,1,54.63,19.3Zm0,1.58a.24.24,0,0,0-.19.06,1,1,0,0,0-.11.29l-.87,3.18h2.37L55,21.23c-.06-.19-.11-.3-.17-.32A.34.34,0,0,0,54.63,20.88Z" transform="translate(0.03)"/><path class="cls-3" d="M59.82,19.37h1.41a.16.16,0,0,1,.18.18v8.92a.17.17,0,0,1-.18.19H59.82a.17.17,0,0,1-.18-.19V19.55A.16.16,0,0,1,59.82,19.37Z" transform="translate(0.03)"/><path class="cls-3" d="M63.44,20.45l1.42-.37c.13,0,.19,0,.19.18V22h1.1q.21,0,.21.18v1q0,.18-.21.18h-1.1v3.28a.64.64,0,0,0,.15.49,1,1,0,0,0,.56.12h.49c.14,0,.2.06.2.18v1a.21.21,0,0,1-.19.23,5.38,5.38,0,0,1-1,.11,4.65,4.65,0,0,1-1.13-.11,1,1,0,0,1-.61-.44,2.26,2.26,0,0,1-.23-1V23.29h-.7c-.13,0-.2-.06-.2-.18v-1c0-.12.07-.18.2-.18h.7V20.64A.19.19,0,0,1,63.44,20.45Z" transform="translate(0.03)"/><path class="cls-3" d="M76.64,22.05H78a.16.16,0,0,1,.18.18v1.93h2a.16.16,0,0,1,.18.18v1.22a.16.16,0,0,1-.18.18h-2v2a.16.16,0,0,1-.18.18H76.64a.16.16,0,0,1-.18-.18v-2h-2a.16.16,0,0,1-.18-.18V24.34a.16.16,0,0,1,.18-.18h2V22.23A.16.16,0,0,1,76.64,22.05Z" transform="translate(0.03)"/><path class="cls-3" d="M88.13,26.79a1.08,1.08,0,0,1,.77.25.93.93,0,0,1,.28.71.94.94,0,0,1-.28.71,1.27,1.27,0,0,1-1.54,0,.93.93,0,0,1-.27-.71.92.92,0,0,1,.27-.71A1.08,1.08,0,0,1,88.13,26.79Z" transform="translate(0.03)"/></svg>