<?xml version="1.0" encoding="utf-8"?>
<!-- Generator: Adobe Illustrator 25.2.1, SVG Export Plug-In . SVG Version: 6.00 Build 0)  -->
<svg version="1.1" id="Layer_1" xmlns="http://www.w3.org/2000/svg" xmlns:xlink="http://www.w3.org/1999/xlink" x="0px" y="0px"
	 viewBox="0 0 300 100" style="enable-background:new 0 0 300 100;" xml:space="preserve">
<style type="text/css">
	.st0{fill:none;stroke:#FFFFFF;stroke-width:2;stroke-linecap:round;stroke-linejoin:round;}
	.st1{fill:#FFF62A;stroke:#000000;stroke-width:2;}
	.st2{opacity:0.67;enable-background:new    ;}
	.st3{fill:none;stroke:#000000;stroke-width:2;}
</style>
<path class="st0" d="M-13.8,38.8C-3.3,46.9,6,55.2,16.3,63.3c4.9,3.9,9.4,7.8,15.1,11.5c4,2.6,8.2,5.1,12.6,7.2
	c3.3,1.7,6.3,3.5,10.7,4.7c6,1.7,13.1,3.5,20.6,3.4c8.4-0.1,15.8-2.4,22.1-4.5c8.4-2.8,13.6-6.8,19.6-10.3c3.6-2.2,7.1-4.5,10.4-7
	c4.5-3.3,8.3-6.8,12.4-10.2c3.2-2.6,11.1-8.8,11.1-8.8l0,0c0,0,11.8-9.7,18-14.5c5.2-4,10-8.1,16.4-11.9c5.4-3.4,11.1-6.2,17-8.4
	c4.9-1.8,10-3.1,15.2-3.9c2.5-0.4,5.1-0.5,7.6-0.4c5,0.1,10,0.8,14.9,2c10.6,2.8,17.6,7.1,24.8,11.1c8.5,4.8,14.4,10.2,21.2,15.5
	c10.5,8.1,19.8,16.4,30.2,24.5c4.9,3.9,9.4,7.8,15.1,11.5c4.1,2.6,8.3,5,12.6,7.2c3.3,1.7,6.3,3.5,10.7,4.7c6,1.7,13.1,3.5,20.6,3.4
	c8.4-0.1,15.8-2.4,22.1-4.5c8.4-2.8,13.6-6.8,19.6-10.3c3.6-2.2,7.1-4.5,10.4-7c4.5-3.3,8.3-6.8,12.5-10.2c3.1-2.6,11-8.8,11-8.8
	l0,0v0c0,0,11.8-9.7,18-14.5c5.2-4,10-8.1,16.4-11.9c5.4-3.4,11.1-6.2,17-8.4c4.9-1.8,10-3.1,15.2-3.9c2.5-0.4,5.1-0.5,7.6-0.4
	c5,0.1,10,0.8,14.9,2c10.5,2.8,17.6,7.1,24.7,11.1c8.5,4.8,14.5,10.3,21.2,15.5c10.5,8.1,19.8,16.4,30.2,24.5
	c4.9,3.9,9.4,7.8,15.1,11.5c4,2.6,8.2,5.1,12.6,7.2c3.3,1.7,6.3,3.5,10.7,4.7c6,1.7,13.1,3.5,20.6,3.4c8.4-0.1,15.8-2.4,22.1-4.5
	c8.4-2.8,13.6-6.8,19.6-10.3c3.6-2.2,7.1-4.5,10.4-7c4.5-3.3,8.3-6.8,12.5-10.2c3.2-2.6,11.1-8.8,11.1-8.8l0,0c0,0,11.8-9.7,18-14.5
	c5.2-4,10-8.1,16.4-11.9c5.4-3.4,11.1-6.2,17-8.4c4.9-1.8,10-3.1,15.2-3.9c2.5-0.4,5.1-0.5,7.6-0.4c5,0.1,10,0.8,14.9,2
	c10.6,2.8,17.6,7.1,24.8,11.1c8.5,4.8,14.5,10.2,21.2,15.5c10.5,8.1,19.8,16.4,30.2,24.5c4.9,3.9,9.4,7.8,15.1,11.5
	c4.1,2.6,8.3,5,12.6,7.2c3.3,1.7,6.3,3.5,10.7,4.7c6,1.7,13.1,3.5,20.6,3.4c8.4-0.1,15.8-2.4,22.1-4.5c8.4-2.8,13.6-6.8,19.6-10.3
	c3.6-2.2,7.1-4.5,10.4-7c4.5-3.3,8.3-6.8,12.4-10.2c3.2-2.6,11.1-8.8,11.1-8.8l0,0"/>
<circle class="st1" cx="150" cy="50" r="7.5"/>
<rect y="50" class="st2" width="300" height="50"/>
<line class="st3" x1="0" y1="50" x2="300" y2="50"/>
</svg>
