<svg id="Layer_1" data-name="Layer 1" xmlns="http://www.w3.org/2000/svg" viewBox="0 0 36 36"><defs><style>.cls-1{opacity:0.33;}.cls-2{fill:#fff;}</style></defs><circle class="cls-1" cx="18" cy="18" r="18"/><path class="cls-2" d="M9,17h4a5,5,0,0,1,10,0h4a1,1,0,0,1,0,2H9a1,1,0,0,1,0-2m12,0a3,3,0,0,0-6,0h6M18,7l2.39,3.42a7,7,0,0,0-4.78,0L18,7M9.34,12l4.16-.35a7.2,7.2,0,0,0-1.56,1.85,6.67,6.67,0,0,0-.83,2.29L9.34,12m17.31,0-1.77,3.79a7,7,0,0,0-.83-2.29,7.21,7.21,0,0,0-1.55-1.86l4.15.36M13.82,27.71l3.11-3.11a1,1,0,0,0,0-1.42,1,1,0,0,0-1.41,0l-2.41,2.41L10.7,23.18a1,1,0,0,0-1.41,0,1,1,0,0,0,0,1.42l3.11,3.11a1,1,0,0,0,1.42,0Zm8.36-5.53-3.11,3.11a1,1,0,0,0,0,1.42,1,1,0,0,0,1.41,0l2.41-2.41,2.41,2.41a1,1,0,0,0,1.41,0,1,1,0,0,0,0-1.42L23.6,22.18a1,1,0,0,0-1.42,0Z"/></svg>